<svg xmlns="http://www.w3.org/2000/svg" width="183.15" height="46.892"><g fill="#fff"><path data-name="Path 17" d="M8.558.217a11.578 11.578 0 013.61.5 6.937 6.937 0 012.484 1.372 5.346 5.346 0 011.44 2.061 6.988 6.988 0 01.464 2.566 7.541 7.541 0 01-.478 2.73 5.476 5.476 0 01-1.461 2.129 6.88 6.88 0 01-2.491 1.385 11.416 11.416 0 01-3.569.5h-2.4v6.647H1.542V.217zm0 9.759a2.927 2.927 0 003.385-3.259 3.591 3.591 0 00-.2-1.242 2.53 2.53 0 00-.621-.962 2.8 2.8 0 00-1.051-.621 4.656 4.656 0 00-1.508-.218h-2.4V9.98z"/><path data-name="Path 18" d="M35.173 20.105h-4.177a1.772 1.772 0 01-1.665-.873l-3.3-5.774a1.343 1.343 0 00-1.338-.71h-1.177v7.357h-4.611V.217h6.47a13.3 13.3 0 013.678.443 6.907 6.907 0 012.484 1.235 4.678 4.678 0 011.4 1.87 6.2 6.2 0 01.437 2.348 6.306 6.306 0 01-.259 1.829 5.635 5.635 0 01-.764 1.59 5.823 5.823 0 01-1.249 1.3 6.664 6.664 0 01-1.713.942 4.174 4.174 0 01.846.58 4.07 4.07 0 01.71.826zm-9.8-10.537a4.742 4.742 0 001.6-.239 2.893 2.893 0 001.085-.662 2.523 2.523 0 00.614-.99 3.8 3.8 0 00.191-1.222 2.562 2.562 0 00-.853-2.047 3.971 3.971 0 00-2.641-.737h-1.853v5.9z"/><path data-name="Path 19" d="M56.016 10.155a10.683 10.683 0 01-.744 4.013 9.481 9.481 0 01-5.35 5.378 11.876 11.876 0 01-8.456 0 9.492 9.492 0 01-5.371-5.378 11.2 11.2 0 010-8.026 9.55 9.55 0 012.1-3.222A9.721 9.721 0 0141.464.777a11.122 11.122 0 014.231-.778 10.99 10.99 0 014.225.785 9.754 9.754 0 013.258 2.154 9.6 9.6 0 012.095 3.222 10.648 10.648 0 01.743 3.995zm-4.722 0a8.6 8.6 0 00-.382-2.654 5.625 5.625 0 00-1.1-2 4.739 4.739 0 00-1.754-1.256 6.041 6.041 0 00-2.361-.437 6.13 6.13 0 00-2.382.437 4.727 4.727 0 00-1.761 1.256 5.626 5.626 0 00-1.1 2 9.462 9.462 0 000 5.323 5.626 5.626 0 001.1 2 4.661 4.661 0 001.761 1.249 6.214 6.214 0 002.382.43 6.123 6.123 0 002.361-.43 4.673 4.673 0 001.754-1.249 5.625 5.625 0 001.1-2 8.648 8.648 0 00.381-2.669z"/><path data-name="Path 20" d="M68.288 9.8h7.07v8.394a10.448 10.448 0 01-3.255 1.624 12.809 12.809 0 01-3.61.5 12.406 12.406 0 01-4.47-.771 10.288 10.288 0 01-3.446-2.129 9.342 9.342 0 01-2.211-3.221 10.4 10.4 0 01-.778-4.047 11.017 11.017 0 01.737-4.088 9.2 9.2 0 012.109-3.214 9.565 9.565 0 013.317-2.1 11.993 11.993 0 014.347-.751 12.658 12.658 0 012.334.2 11.49 11.49 0 012.013.56 9.258 9.258 0 011.686.846 9.073 9.073 0 011.365 1.065l-1.338 2.034a1.284 1.284 0 01-.812.587 1.432 1.432 0 01-1.071-.246q-.546-.327-1.03-.566a6.31 6.31 0 00-.99-.389 6.521 6.521 0 00-1.065-.219 10.466 10.466 0 00-1.256-.068 5.73 5.73 0 00-2.334.457 5.012 5.012 0 00-1.768 1.29 5.834 5.834 0 00-1.126 2 8.06 8.06 0 00-.4 2.6 8.369 8.369 0 00.437 2.812 5.814 5.814 0 001.235 2.074 5.273 5.273 0 001.911 1.29 6.591 6.591 0 002.464.444 6.409 6.409 0 001.508-.164 8.447 8.447 0 001.317-.437v-3.009h-1.966a.955.955 0 01-.682-.232.772.772 0 01-.245-.587z"/><path data-name="Path 21" d="M94.724 20.105h-4.177a1.771 1.771 0 01-1.665-.873l-3.3-5.774a1.6 1.6 0 00-.519-.539 1.616 1.616 0 00-.819-.171H83.07v7.357h-4.613V.217h6.47a13.292 13.292 0 013.678.443 6.909 6.909 0 012.484 1.235 4.674 4.674 0 011.4 1.87 6.2 6.2 0 01.437 2.348 6.306 6.306 0 01-.259 1.829 5.634 5.634 0 01-.764 1.59 5.824 5.824 0 01-1.249 1.3 6.67 6.67 0 01-1.713.942 4.172 4.172 0 01.846.58 4.058 4.058 0 01.71.826zm-9.8-10.537a4.743 4.743 0 001.6-.239 2.893 2.893 0 001.085-.662 2.523 2.523 0 00.614-.99 3.8 3.8 0 00.191-1.222 2.563 2.563 0 00-.853-2.047 3.971 3.971 0 00-2.641-.737h-1.856v5.9z"/><path data-name="Path 22" d="M101.042 3.768v4.641h6.252v3.408h-6.252v4.74h8.166v3.549h-12.8V.217h12.8v3.549z"/><path data-name="Path 23" d="M123.031 4.258a1.738 1.738 0 01-.43.492.963.963 0 01-.58.164 1.42 1.42 0 01-.676-.2q-.362-.2-.819-.444a6.845 6.845 0 00-1.044-.443 4.181 4.181 0 00-1.338-.2 2.876 2.876 0 00-1.931.553 1.881 1.881 0 00-.635 1.494 1.378 1.378 0 00.382 1 3.293 3.293 0 001 .682 10.78 10.78 0 001.42.525q.8.239 1.631.532a14.624 14.624 0 011.631.689 5.445 5.445 0 011.42 1.01 4.726 4.726 0 011 1.495 5.323 5.323 0 01.382 2.123 6.915 6.915 0 01-.478 2.58 6.044 6.044 0 01-1.385 2.095 6.431 6.431 0 01-2.239 1.406 8.372 8.372 0 01-3.023.512 9.715 9.715 0 01-1.89-.191 11.245 11.245 0 01-1.863-.539 10.741 10.741 0 01-1.693-.826 7.189 7.189 0 01-1.379-1.065l1.365-2.156a1.374 1.374 0 01.43-.389 1.122 1.122 0 01.58-.157 1.555 1.555 0 01.826.259q.416.26.942.573a7.615 7.615 0 001.208.573 4.524 4.524 0 001.611.259 3.068 3.068 0 001.952-.553 2.105 2.105 0 00.7-1.754 1.658 1.658 0 00-.382-1.132 2.953 2.953 0 00-1-.724 9.287 9.287 0 00-1.412-.5q-.792-.218-1.624-.484a11.879 11.879 0 01-1.624-.655 5.125 5.125 0 01-1.413-1.024 4.787 4.787 0 01-1-1.583 6.287 6.287 0 01-.382-2.341 5.553 5.553 0 01.45-2.184 5.637 5.637 0 011.324-1.9A6.513 6.513 0 01115.188.5a7.915 7.915 0 012.907-.5 10.9 10.9 0 011.781.143 9.409 9.409 0 011.645.423 9.055 9.055 0 011.449.672 6.716 6.716 0 011.208.88z"/><path data-name="Path 24" d="M138.154 4.258a1.738 1.738 0 01-.43.492.963.963 0 01-.58.164 1.42 1.42 0 01-.676-.2q-.362-.2-.819-.444a6.859 6.859 0 00-1.044-.443 4.182 4.182 0 00-1.338-.2 2.876 2.876 0 00-1.931.553 1.881 1.881 0 00-.635 1.494 1.376 1.376 0 00.382 1 3.293 3.293 0 001 .682 10.781 10.781 0 001.42.525q.8.239 1.631.532a14.621 14.621 0 011.631.689 5.451 5.451 0 011.42 1.01 4.726 4.726 0 011 1.495 5.323 5.323 0 01.382 2.123 6.915 6.915 0 01-.478 2.58 6.045 6.045 0 01-1.385 2.095 6.432 6.432 0 01-2.239 1.406 8.372 8.372 0 01-3.023.512 9.722 9.722 0 01-1.891-.191 11.263 11.263 0 01-1.863-.539 10.752 10.752 0 01-1.692-.826 7.189 7.189 0 01-1.379-1.065l1.365-2.156a1.374 1.374 0 01.43-.389 1.122 1.122 0 01.58-.157 1.555 1.555 0 01.826.259q.416.26.942.573a7.615 7.615 0 001.208.573 4.522 4.522 0 001.611.259 3.068 3.068 0 001.952-.553 2.105 2.105 0 00.7-1.754 1.658 1.658 0 00-.382-1.132 2.953 2.953 0 00-1-.724 9.3 9.3 0 00-1.412-.5q-.792-.218-1.624-.484a11.879 11.879 0 01-1.624-.655 5.125 5.125 0 01-1.413-1.024 4.787 4.787 0 01-1-1.583 6.287 6.287 0 01-.382-2.341 5.553 5.553 0 01.45-2.184 5.637 5.637 0 011.324-1.9A6.513 6.513 0 01130.311.5a7.915 7.915 0 012.907-.5 10.9 10.9 0 011.781.143 9.417 9.417 0 011.645.423 9.07 9.07 0 011.454.669 6.715 6.715 0 011.208.88z"/><path data-name="Path 25" d="M146.93 20.105h-4.64V.217h4.641z"/><path data-name="Path 26" d="M168.618.217l-7.971 19.886h-4.176L148.499.217h3.712a1.56 1.56 0 01.969.28 1.78 1.78 0 01.56.716l3.849 10.646q.273.7.533 1.522t.491 1.727q.191-.9.43-1.727t.512-1.522l3.821-10.642a1.659 1.659 0 01.539-.689 1.505 1.505 0 01.962-.307z"/><path data-name="Path 27" d="M174.827 3.768v4.641h6.252v3.408h-6.252v4.74h8.162v3.549h-12.8V.217h12.8v3.549z"/><path data-name="Path 28" d="M12.529 29.7a1.721 1.721 0 01-.43.491.961.961 0 01-.58.164 1.417 1.417 0 01-.676-.2q-.362-.2-.819-.443a6.793 6.793 0 00-1.044-.443 4.182 4.182 0 00-1.338-.2 2.878 2.878 0 00-1.931.553 1.881 1.881 0 00-.635 1.495 1.375 1.375 0 00.382 1 3.281 3.281 0 001 .682 10.73 10.73 0 001.42.525q.8.239 1.631.532a14.723 14.723 0 011.631.689 5.455 5.455 0 011.42 1.01 4.724 4.724 0 011 1.494 5.317 5.317 0 01.382 2.123 6.914 6.914 0 01-.478 2.58 6.036 6.036 0 01-1.385 2.095 6.424 6.424 0 01-2.238 1.406 8.379 8.379 0 01-3.023.512 9.693 9.693 0 01-1.89-.191 11.209 11.209 0 01-1.863-.539 10.816 10.816 0 01-1.693-.826 7.178 7.178 0 01-1.378-1.065l1.365-2.157a1.365 1.365 0 01.43-.389 1.123 1.123 0 01.58-.157 1.555 1.555 0 01.826.259q.416.259.942.573a7.631 7.631 0 001.208.573 4.533 4.533 0 001.61.259 3.065 3.065 0 001.952-.553 2.1 2.1 0 00.7-1.754 1.658 1.658 0 00-.382-1.133 2.95 2.95 0 00-1-.723 9.283 9.283 0 00-1.413-.5q-.792-.218-1.624-.485a11.855 11.855 0 01-1.624-.655 5.126 5.126 0 01-1.413-1.024 4.786 4.786 0 01-1-1.583 6.282 6.282 0 01-.382-2.341 5.557 5.557 0 01.45-2.184 5.643 5.643 0 011.324-1.9 6.519 6.519 0 012.143-1.331 7.92 7.92 0 012.907-.5 10.9 10.9 0 011.781.143 9.351 9.351 0 011.645.423 9.01 9.01 0 011.454.669 6.7 6.7 0 011.208.881z"/><path data-name="Path 29" d="M30.956 29.318h-5.6v16.229h-4.61V29.318h-5.6V25.66h15.81z"/><path data-name="Path 30" d="M49.19 45.547h-3.576a1.562 1.562 0 01-.969-.28 1.78 1.78 0 01-.56-.717l-1.174-3.467h-7.562l-1.174 3.467a1.664 1.664 0 01-.539.689 1.507 1.507 0 01-.962.307h-3.6l7.7-19.887h4.716zm-7.329-7.6l-1.843-5.446q-.2-.519-.437-1.222t-.464-1.522q-.2.833-.437 1.542t-.437 1.228l-1.829 5.419z"/><path data-name="Path 31" d="M63.114 29.318h-5.6v16.229h-4.613V29.318h-5.6V25.66h15.813z"/><path data-name="Path 32" d="M70.086 29.209v4.64h6.251v3.412h-6.251v4.736h8.162v3.549h-12.8V25.66h12.8v3.549z"/><path data-name="Path 33" d="M113.148 45.6c-.877-.254-1.746-.539-2.632-.757a17.335 17.335 0 00-7.421-.063q-5.169.968-10.35 1.87a16.562 16.562 0 01-8.73-.852c-.247-.092-.415-.2-.414-.5.007-2.073 0-4.146.007-6.218a1.063 1.063 0 01.037-.173c.363.112.72.218 1.075.332a18.567 18.567 0 009.347.416c3.372-.651 6.761-1.222 10.148-1.8a15.937 15.937 0 015.384.074c1.23.21 1 .175 1.007-.846.009-1.061.152-.969-1.033-1.207a17.716 17.716 0 00-6.634.206q-1.352.238-2.708.452c-.546.087-.578.054-.578-.5v-5.753c0-.244-.014-.477.333-.527 2.076-.3 4.143-.7 6.229-.873a21.7 21.7 0 013.61.269 1.6 1.6 0 00.456.057c.123-.029.3-.164.313-.264.034-.435.012-.873.016-1.31 0-.351-.265-.4-.512-.451a12.8 12.8 0 00-4.072-.292c-1.9.221-3.789.544-5.682.821-.139.02-.279.038-.419.047a1.576 1.576 0 01-.263-.036c0-.693-.018-1.38.017-2.065.006-.118.22-.3.361-.326a31.915 31.915 0 017.619-.886 17.559 17.559 0 014.985 1.037 2.023 2.023 0 01.5.4v6.346a1.339 1.339 0 01-.467 0 17.933 17.933 0 00-10.139-.615.4.4 0 00-.38.454c0 .422.008.845 0 1.267-.007.3.13.354.4.312.625-.1 1.252-.182 1.881-.259a17.78 17.78 0 018.027.852 3.3 3.3 0 01.682.444v6.345a2.688 2.688 0 01-.63-.062 16.618 16.618 0 00-8.161-.791c-2.959.479-5.9 1.048-8.857 1.573a24.583 24.583 0 01-5.271.659c-1.248-.05-2.492-.246-3.733-.408-.338-.044-.434.055-.426.367.012.408.011.818 0 1.226a.386.386 0 00.355.439 15.817 15.817 0 005.876.257c3.842-.668 7.677-1.378 11.521-2.031a17.086 17.086 0 018.816.8 2.609 2.609 0 01.51.335z"/><path data-name="Path 34" d="M86.14 28.823a.846.846 0 00-.059.178c0 1.959 0 3.918.023 5.877a.571.571 0 00.341.384 6.9 6.9 0 00.871.153 19.03 19.03 0 007.592-.246.424.424 0 00.39-.465q-.007-2.855 0-5.709c0-.244-.106-.33-.341-.289-.375.065-.753.113-1.126.185a17.138 17.138 0 01-5.965.208c-.567-.089-1.135-.182-1.726-.276m-2.52-3.084c.976.256 1.881.513 2.8.73a18.055 18.055 0 007.8-.024c1.048-.209 2.106-.374 3.157-.575.355-.068.475.032.474.4q-.016 5.116 0 10.232c0 .337-.094.511-.456.567-2 .311-3.995.708-6.005.948a15.7 15.7 0 01-6.219-.673c-.338-.1-.671-.216-1.013-.3a.63.63 0 01-.546-.72c.018-1.494.017-2.988.019-4.482v-5.581z"/><path data-name="Path 1" d="M122.264 32.874v1.242h-4.733v-8.08h1.5v6.839z"/><path data-name="Path 2" d="M124.85 27.231v2.241h2.827v1.156h-2.827v2.288h3.588v1.2h-5.1v-8.08h5.1v1.2z"/><path data-name="Path 3" d="M136.687 34.116h-1.163a.5.5 0 01-.318-.1.6.6 0 01-.184-.243l-.6-1.648h-3.347l-.6 1.648a.534.534 0 01-.173.235.485.485 0 01-.319.106h-1.173l3.179-8.08h1.519zm-2.654-3.051l-.984-2.688c-.048-.119-.1-.261-.151-.425s-.1-.341-.157-.531q-.073.285-.151.534t-.151.433l-.978 2.677z"/><path data-name="Path 4" d="M144.699 30.075a4.37 4.37 0 01-.3 1.632 3.663 3.663 0 01-2.117 2.109 4.548 4.548 0 01-1.677.3h-3.079v-8.08h3.079a4.52 4.52 0 011.677.3 3.783 3.783 0 011.291.833 3.719 3.719 0 01.832 1.277 4.37 4.37 0 01.294 1.629zm-1.542 0a3.773 3.773 0 00-.176-1.193 2.478 2.478 0 00-.509-.894 2.219 2.219 0 00-.8-.562 2.76 2.76 0 00-1.065-.2h-1.57v5.69h1.57a2.76 2.76 0 001.065-.2 2.215 2.215 0 00.8-.562 2.473 2.473 0 00.509-.894 3.77 3.77 0 00.176-1.185z"/><path data-name="Path 5" d="M147.532 27.231v2.241h2.827v1.156h-2.827v2.288h3.588v1.2h-5.1v-8.08h5.1v1.2z"/><path data-name="Path 6" d="M158.759 34.116h-1.358a.6.6 0 01-.559-.3l-1.7-2.587a.594.594 0 00-.21-.207.735.735 0 00-.338-.061h-.643v3.155h-1.5v-8.08h2.464a5.118 5.118 0 011.411.17 2.7 2.7 0 01.967.478 1.871 1.871 0 01.556.735 2.419 2.419 0 01.179.942 2.445 2.445 0 01-.12.771 2.226 2.226 0 01-.347.659 2.33 2.33 0 01-.559.52 2.809 2.809 0 01-.757.352 1.451 1.451 0 01.268.2 1.413 1.413 0 01.223.271zm-3.867-4.236a2.32 2.32 0 00.741-.106 1.428 1.428 0 00.52-.293 1.172 1.172 0 00.3-.444 1.539 1.539 0 00.1-.564 1.148 1.148 0 00-.405-.944 1.937 1.937 0 00-1.238-.33h-.961v2.682z"/><path data-name="Path 7" d="M163.938 27.504a.519.519 0 01-.143.17.316.316 0 01-.187.053.481.481 0 01-.254-.087q-.137-.087-.327-.193a2.665 2.665 0 00-.445-.193 1.867 1.867 0 00-.6-.087 1.8 1.8 0 00-.548.075 1.15 1.15 0 00-.394.21.841.841 0 00-.238.321 1.06 1.06 0 00-.078.411.714.714 0 00.159.475 1.327 1.327 0 00.422.324 3.947 3.947 0 00.6.24q.335.107.687.226a6.492 6.492 0 01.687.28 2.351 2.351 0 01.6.4 1.831 1.831 0 01.422.6 2.073 2.073 0 01.159.855 2.786 2.786 0 01-.187 1.025 2.367 2.367 0 01-.548.833 2.573 2.573 0 01-.88.559 3.244 3.244 0 01-1.19.2 3.852 3.852 0 01-.76-.075 4.01 4.01 0 01-.718-.215 3.8 3.8 0 01-.646-.335 3.113 3.113 0 01-.536-.436l.441-.721a.472.472 0 01.145-.131.365.365 0 01.19-.053.535.535 0 01.3.115q.162.115.385.254a3.028 3.028 0 00.522.254 2.007 2.007 0 00.718.115 1.476 1.476 0 00.995-.3 1.094 1.094 0 00.352-.875.81.81 0 00-.159-.52 1.29 1.29 0 00-.422-.338 3.155 3.155 0 00-.6-.232q-.336-.1-.682-.207a5.891 5.891 0 01-.682-.268 2.205 2.205 0 01-.6-.408 1.86 1.86 0 01-.422-.629 2.4 2.4 0 01-.159-.93 2.2 2.2 0 01.176-.861 2.226 2.226 0 01.511-.743 2.5 2.5 0 01.827-.52 3.036 3.036 0 011.129-.2 3.775 3.775 0 011.319.223 2.983 2.983 0 011.028.626z"/><path data-name="Path 8" d="M123.08 43.385a.3.3 0 01.218.095l.592.643a3.247 3.247 0 01-1.21.933 4.169 4.169 0 01-1.724.324 4.076 4.076 0 01-1.618-.307 3.567 3.567 0 01-1.227-.855 3.742 3.742 0 01-.779-1.308 4.908 4.908 0 01-.271-1.66 4.615 4.615 0 01.291-1.668 3.838 3.838 0 01.818-1.3 3.711 3.711 0 011.26-.852 4.181 4.181 0 011.62-.3 3.983 3.983 0 011.567.291 3.737 3.737 0 011.165.76l-.5.7a.46.46 0 01-.114.117.326.326 0 01-.193.05.368.368 0 01-.173-.047c-.06-.031-.125-.071-.2-.117s-.153-.1-.246-.154a2.006 2.006 0 00-.324-.154 2.682 2.682 0 00-.427-.117 2.98 2.98 0 00-.562-.047 2.488 2.488 0 00-.991.193 2.152 2.152 0 00-.774.559 2.565 2.565 0 00-.5.894 3.739 3.739 0 00-.179 1.2 3.533 3.533 0 00.193 1.213 2.654 2.654 0 00.522.894 2.226 2.226 0 00.776.556 2.4 2.4 0 00.961.193 4.161 4.161 0 00.556-.033 2.343 2.343 0 00.458-.106 2.05 2.05 0 00.4-.187 2.5 2.5 0 00.371-.282.531.531 0 01.117-.081.282.282 0 01.127-.04z"/><path data-name="Path 9" d="M132.456 41.25a4.524 4.524 0 01-.293 1.646 3.873 3.873 0 01-.83 1.31 3.775 3.775 0 01-1.291.863 4.673 4.673 0 01-3.347 0 3.8 3.8 0 01-1.294-.863 3.876 3.876 0 01-.835-1.31 4.723 4.723 0 010-3.292 3.876 3.876 0 01.835-1.31 3.8 3.8 0 011.294-.863 4.358 4.358 0 011.671-.31 4.533 4.533 0 011.156.142 4.07 4.07 0 01.995.4 3.662 3.662 0 01.813.632 3.829 3.829 0 01.612.83 4.091 4.091 0 01.383.995 4.741 4.741 0 01.131 1.13zm-1.537 0a3.71 3.71 0 00-.179-1.193 2.561 2.561 0 00-.509-.9 2.175 2.175 0 00-.8-.564 3 3 0 00-2.129 0 2.2 2.2 0 00-.8.564 2.539 2.539 0 00-.511.9 4.068 4.068 0 000 2.386 2.512 2.512 0 00.511.894 2.219 2.219 0 00.8.562 2.995 2.995 0 002.129 0 2.188 2.188 0 00.8-.562 2.533 2.533 0 00.509-.894 3.711 3.711 0 00.179-1.193z"/><path data-name="Path 10" d="M142.542 37.211v8.08h-1.324v-5.219q0-.313.034-.676l-2.442 4.588a.564.564 0 01-.531.33h-.212a.564.564 0 01-.531-.33l-2.47-4.6c.011.123.02.244.028.363s.011.229.011.329v5.219h-1.324v-8.08h1.134c.067 0 .125 0 .173.006a.464.464 0 01.131.028.29.29 0 01.106.073.635.635 0 01.092.134l2.42 4.487q.095.179.176.369t.159.391q.078-.207.162-.4t.179-.371l2.386-4.476a.551.551 0 01.1-.134.31.31 0 01.109-.073.467.467 0 01.131-.028c.048 0 .106-.006.173-.006z"/><path data-name="Path 11" d="M153.104 37.211v8.08h-1.324v-5.219q0-.313.033-.676l-2.442 4.588a.564.564 0 01-.531.33h-.21a.564.564 0 01-.531-.33l-2.47-4.6q.017.184.028.363a4.9 4.9 0 01.011.329v5.219h-1.324v-8.08h1.134c.067 0 .125 0 .173.006a.464.464 0 01.131.028.291.291 0 01.107.073.621.621 0 01.092.134l2.42 4.487q.1.179.176.369t.159.391q.078-.207.162-.4t.179-.371l2.386-4.476a.56.56 0 01.095-.134.311.311 0 01.109-.073.467.467 0 01.131-.028c.048 0 .106-.006.173-.006z"/><path data-name="Path 12" d="M156.412 45.291h-1.509v-8.08h1.509z"/><path data-name="Path 13" d="M163.86 38.446h-2.436v6.845h-1.5v-6.845h-2.436v-1.235h6.375z"/><path data-name="Path 14" d="M170.566 38.446h-2.436v6.845h-1.5v-6.845h-2.436v-1.235h6.376z"/><path data-name="Path 15" d="M173.136 38.407v2.241h2.828v1.157h-2.828v2.285h3.588v1.2h-5.1v-8.08h5.1v1.2z"/><path data-name="Path 16" d="M179.563 38.407v2.241h2.827v1.157h-2.827v2.285h3.587v1.2h-5.1v-8.08h5.1v1.2z"/></g></svg>